Normalized EMG Linear Envelopes
nRows=143
nColumns=4

endheader
time	 med_gas_r	  soleus_r	 tib_ant_r	
1.33065	  0.050813	  0.278150	  0.058542	
1.36391	  0.051488	  0.272841	  0.058477	
1.39718	  0.052473	  0.267920	  0.058647	
1.43044	  0.053820	  0.264340	  0.058957	
1.46371	  0.055484	  0.263112	  0.059286	
1.49698	  0.057279	  0.265253	  0.059582	
1.53024	  0.058891	  0.269655	  0.059756	
1.56351	  0.060152	  0.274735	  0.059801	
1.59677	  0.061319	  0.278807	  0.059716	
1.63004	  0.062565	  0.279890	  0.059604	
1.66331	  0.063937	  0.277742	  0.059488	
1.69657	  0.065202	  0.273112	  0.059403	
1.72984	  0.065734	  0.266389	  0.059359	
1.7631	  0.064976	  0.258736	  0.059183	
1.79637	  0.063312	  0.251954	  0.058804	
1.82964	  0.061440	  0.246888	  0.058413	
1.8629	  0.059706	  0.243581	  0.058103	
1.89617	  0.058123	  0.241623	  0.057763	
1.92944	  0.056686	  0.241263	  0.057342	
1.9627	  0.055639	  0.243147	  0.056747	
1.99597	  0.055033	  0.246884	  0.055997	
2.02923	  0.054735	  0.252043	  0.055350	
2.0625	  0.054406	  0.259271	  0.054854	
2.09577	  0.053716	  0.268564	  0.054438	
2.12903	  0.052751	  0.278767	  0.053975	
2.1623	  0.051928	  0.288493	  0.053557	
2.19556	  0.051506	  0.295931	  0.053362	
2.22883	  0.051571	  0.299493	  0.053549	
2.2621	  0.052058	  0.299080	  0.053918	
2.29536	  0.052719	  0.295664	  0.054215	
2.32863	  0.053046	  0.289148	  0.054407	
2.3619	  0.052965	  0.280087	  0.054491	
2.39516	  0.052734	  0.269949	  0.054591	
2.42843	  0.052492	  0.260402	  0.054824	
2.46169	  0.052183	  0.252355	  0.054958	
2.49496	  0.051613	  0.245756	  0.054831	
2.52823	  0.050568	  0.241158	  0.054632	
2.56149	  0.049516	  0.239212	  0.054561	
2.59476	  0.048857	  0.239858	  0.054621	
2.62802	  0.048692	  0.242406	  0.054568	
2.66129	  0.048882	  0.246041	  0.054311	
2.69456	  0.049004	  0.250106	  0.053991	
2.72782	  0.048593	  0.254028	  0.053679	
2.76109	  0.047833	  0.256911	  0.053358	
2.79435	  0.047053	  0.257666	  0.052943	
2.82762	  0.046483	  0.256210	  0.052568	
2.86089	  0.046162	  0.252866	  0.052240	
2.89415	  0.045997	  0.247685	  0.051910	
2.92742	  0.045753	  0.240737	  0.051563	
2.96069	  0.045388	  0.233159	  0.051196	
2.99395	  0.045075	  0.226508	  0.050900	
3.02722	  0.044919	  0.222001	  0.050820	
3.06048	  0.044981	  0.220149	  0.051107	
3.09375	  0.045194	  0.220870	  0.051722	
3.12702	  0.045277	  0.224097	  0.052408	
3.16028	  0.045010	  0.229595	  0.053055	
3.19355	  0.044605	  0.237029	  0.053728	
3.22681	  0.044512	  0.245089	  0.054518	
3.26008	  0.045020	  0.252191	  0.055471	
3.29335	  0.046068	  0.257309	  0.056493	
3.32661	  0.047289	  0.260163	  0.057455	
3.35988	  0.048262	  0.261702	  0.058236	
3.39315	  0.048711	  0.262639	  0.058674	
3.42641	  0.048690	  0.263030	  0.058657	
3.45968	  0.048301	  0.262622	  0.058151	
3.49294	  0.047856	  0.261256	  0.057409	
3.52621	  0.047597	  0.259280	  0.056671	
3.55948	  0.047525	  0.257598	  0.056063	
3.59274	  0.047519	  0.257083	  0.055654	
3.62601	  0.047457	  0.258870	  0.055404	
3.65927	  0.047364	  0.263020	  0.055226	
3.69254	  0.047410	  0.267980	  0.055029	
3.72581	  0.047691	  0.272418	  0.054865	
3.75907	  0.048211	  0.275225	  0.054797	
3.79234	  0.048877	  0.276380	  0.054822	
3.8256	  0.049541	  0.276108	  0.054886	
3.85887	  0.049932	  0.274714	  0.054984	
3.89214	  0.049800	  0.272333	  0.055110	
3.9254	  0.049518	  0.268952	  0.055136	
3.95867	  0.049438	  0.264464	  0.054848	
3.99194	  0.049658	  0.258913	  0.054311	
4.0252	  0.049915	  0.252855	  0.053662	
4.05847	  0.049833	  0.247152	  0.053081	
4.09173	  0.049052	  0.242211	  0.052787	
4.125	  0.047832	  0.238114	  0.052894	
4.15827	  0.046679	  0.235073	  0.053338	
4.19153	  0.045923	  0.232641	  0.053799	
4.2248	  0.045721	  0.230459	  0.054079	
4.25806	  0.046019	  0.228408	  0.054268	
4.29133	  0.046640	  0.226741	  0.054448	
4.3246	  0.047368	  0.225878	  0.054602	
4.35786	  0.047807	  0.226073	  0.054797	
4.39113	  0.047832	  0.226842	  0.055177	
4.4244	  0.047654	  0.227753	  0.055822	
4.45766	  0.047450	  0.229201	  0.056624	
4.49093	  0.047181	  0.231610	  0.057367	
4.52419	  0.046671	  0.235046	  0.058019	
4.55746	  0.045668	  0.239454	  0.058533	
4.59073	  0.044219	  0.244493	  0.058958	
4.62399	  0.042708	  0.248765	  0.059421	
4.65726	  0.041355	  0.251060	  0.060032	
4.69052	  0.040262	  0.251740	  0.060610	
4.72379	  0.039487	  0.251882	  0.060896	
4.75706	  0.039179	  0.251762	  0.060861	
4.79032	  0.039516	  0.251440	  0.060637	
4.82359	  0.040528	  0.251177	  0.060263	
4.85685	  0.042237	  0.251450	  0.059807	
4.89012	  0.044557	  0.252362	  0.059341	
4.92339	  0.047270	  0.253958	  0.058931	
4.95665	  0.049995	  0.256282	  0.058714	
4.98992	  0.052252	  0.259160	  0.058659	
5.02319	  0.053575	  0.262132	  0.058681	
5.05645	  0.053669	  0.264355	  0.058666	
5.08972	  0.052874	  0.265944	  0.058407	
5.12298	  0.051643	  0.267189	  0.057840	
5.15625	  0.050302	  0.267368	  0.057255	
5.18952	  0.049121	  0.265991	  0.056933	
5.22278	  0.048369	  0.263294	  0.057042	
5.25605	  0.048223	  0.260235	  0.057593	
5.28931	  0.048634	  0.257903	  0.058497	
5.32258	  0.049351	  0.256037	  0.059555	
5.35585	  0.049839	  0.254186	  0.060506	
5.38911	  0.049632	  0.252836	  0.061179	
5.42238	  0.048876	  0.252621	  0.061346	
5.45565	  0.047726	  0.253266	  0.060932	
5.48891	  0.046460	  0.253758	  0.060325	
5.52218	  0.045384	  0.253424	  0.059582	
5.55544	  0.044646	  0.252196	  0.058685	
5.58871	  0.044243	  0.250137	  0.057956	
5.62198	  0.044205	  0.247100	  0.057583	
5.65524	  0.044468	  0.243509	  0.057510	
5.68851	  0.044899	  0.240279	  0.057584	
5.72177	  0.045385	  0.238100	  0.057685	
5.75504	  0.045870	  0.237454	  0.057641	
5.78831	  0.046592	  0.237778	  0.057313	
5.82157	  0.047806	  0.238486	  0.056907	
5.85484	  0.049476	  0.239745	  0.056581	
5.8881	  0.051425	  0.241708	  0.056334	
5.92137	  0.053482	  0.244262	  0.056244	
5.95464	  0.055202	  0.247001	  0.056306	
5.9879	  0.056087	  0.249548	  0.056440	
6.02117	  0.055957	  0.251886	  0.056636	
6.05444	  0.055368	  0.254278	  0.056850	
